<?xml version="1.0" encoding="iso-8859-1"?>
<!-- Generator: Adobe Illustrator 16.0.0, SVG Export Plug-In . SVG Version: 6.00 Build 0)  -->
<!DOCTYPE svg PUBLIC "-//W3C//DTD SVG 1.1//EN" "http://www.w3.org/Graphics/SVG/1.1/DTD/svg11.dtd">
<svg version="1.1" id="Capa_1" xmlns="http://www.w3.org/2000/svg" xmlns:xlink="http://www.w3.org/1999/xlink" x="0px" y="0px"
	 width="347.708px" height="347.708px" viewBox="0 0 347.708 347.708" style="enable-background:new 0 0 347.708 347.708;"
	 xml:space="preserve">
<g>
	<g>
		<path d="M90.258,170.26l1.261-1.18l1.267,1.18c11.082,10.434,23.368,16.187,34.54,16.187c11.736,0,23.857-5.104,35.053-14.748
			l0.937-0.793l2.459,1.198c2.084,1.9,5.822,4.627,7.509,5.449l2.306,1.123l-0.252,0.252l0.882,0.528
			c2.117,1.249,4.375,2.463,6.951,3.754c2.594,1.146,4.828,2.018,7.206,2.798c0.456,0.162,11.511,3.729,24.121,9.577l2.252,0.685
			c11.974,4.563,17.041,10.995,17.222,11.218c18.591,27.586,21.719,87.838,22.02,94.575c-0.138,9.415-2.811,11.865-3.524,12.327
			c-41.662,18.651-104.61,23.497-116.791,24.266l-0.333,0.019l-0.354-0.091c-0.408-0.132-0.832-0.191-1.348-0.191h-0.006
			l-0.429,0.018c-3.327,0.234-6.089,0.343-8.659,0.343h-2.018c-7.587-0.457-75.459-4.9-118.895-24.224
			c-0.88-0.372-3.456-3.339-3.633-11.979c0.006-0.643,2.243-65.687,21.75-94.666c0.952-1.2,6.266-7.374,16.864-11.433
			c9.323-2.858,32.375-10.509,44.985-19.636c0.531-0.324,1.06-0.864,1.618-1.429C86.133,174.38,88.051,172.319,90.258,170.26z
			 M220.082,186.53l-1.723-0.498c-2.822-1.31-5.801-2.606-8.875-3.861c4.335-2.03,7.89-4.023,10.532-5.945
			c0.433-0.246,0.853-0.678,1.249-1.093c0.961-1.023,2.233-2.402,3.734-3.804l0.805-0.739l0.781,0.756
			c8.299,7.791,17.449,12.066,25.796,12.066c8.779,0,17.835-3.801,26.169-10.994l0.601-0.493l1.676,0.811
			c1.537,1.42,4.329,3.44,5.578,4.064l1.441,0.697l-0.168,0.18l0.912,0.529c1.586,0.942,3.279,1.849,5.177,2.785
			c1.945,0.865,3.614,1.525,5.368,2.102c0.342,0.115,8.503,2.738,17.918,7.098l1.663,0.518c8.581,3.271,12.311,7.781,12.677,8.25
			c13.871,20.572,16.104,65.141,16.314,70.1c-0.102,6.888-2.012,8.659-2.491,8.966c-26.098,11.679-63.555,16.062-79.317,17.456
			c-1.424-20.453-6.468-68.635-23.329-93.699l-0.715-0.858C238.439,196.69,230.957,190.697,220.082,186.53z M210.318,112.073
			l0.295-0.351c1.32-0.964,1.969-2.459,1.717-4.002c-3.135-18.828-1.104-26.724-0.396-28.703
			c5.465-16.768,22.662-24.583,26.025-25.967c0.685-0.259,1.993-0.652,3.387-0.886l0.42-0.105l2.594-0.135l0.024,0.18l0.78-0.069
			c0.589-0.048,1.153-0.135,1.544-0.222l0.87-0.195c0.553,0.018,7.344,0.892,17.186,3.903l6.93,2.387
			c12.599,3.72,18.435,10.668,19.516,12.076c10.118,11.493,7.41,28.772,4.876,38.062c-0.276,1.15-0.108,2.318,0.553,3.272
			l0.559,0.721c0.714,0.952,1.356,4.744-0.835,12.928c-0.408,2.48-1.333,4.471-2.654,5.795c-0.54,0.558-0.895,1.285-1.021,2.125
			c-3.423,20.059-21.39,42.487-40.305,42.487c-16.08,0-34.407-20.639-37.698-42.487c-0.132-0.834-0.486-1.561-1.08-2.225
			c-1.333-1.39-2.204-3.419-2.738-6.482C209.267,118.505,209.099,113.917,210.318,112.073z M70.479,90.453l0.435-0.504
			c1.693-1.222,2.51-3.15,2.204-5.122c-4.246-25.512-1.478-36.125-0.517-38.788c7.377-22.665,30.64-33.252,35.212-35.134
			c0.955-0.37,2.732-0.904,4.606-1.204l0.504-0.117l3.837-0.216l0.012,0.246l0.826-0.087c0.769-0.072,1.513-0.183,2.393-0.363
			l0.871-0.207c0.714,0.006,9.691,1.138,23.238,5.281l9.323,3.204c17.023,5.035,24.956,14.462,26.409,16.336
			c13.691,15.546,10.04,38.935,6.642,51.497c-0.391,1.447-0.156,2.96,0.66,4.188l0.757,0.973c1.249,1.672,1.718,7.269-1.068,17.627
			c-0.564,3.384-1.82,6.125-3.663,7.944c-0.667,0.721-1.108,1.66-1.297,2.714c-4.633,27.121-28.943,57.457-54.542,57.457
			c-21.761,0-46.573-27.913-51.05-57.438c-0.147-1.051-0.583-2.018-1.357-2.847c-1.858-1.928-3.05-4.705-3.777-8.83
			C68.983,99.295,68.77,93.047,70.479,90.453z"/>
	</g>
</g>
<g>
</g>
<g>
</g>
<g>
</g>
<g>
</g>
<g>
</g>
<g>
</g>
<g>
</g>
<g>
</g>
<g>
</g>
<g>
</g>
<g>
</g>
<g>
</g>
<g>
</g>
<g>
</g>
<g>
</g>
</svg>
